<?xml version="1.0" encoding="UTF-8"?>
<svg width="32" height="32" viewBox="0 0 32 32" fill="none" xmlns="http://www.w3.org/2000/svg">
  <!-- 云朵形状的背景 -->
  <path d="M8 20.5C5.51472 20.5 3.5 18.4853 3.5 16C3.5 13.5147 5.51472 11.5 8 11.5C8.62862 11.5 9.22631 11.6179 9.77324 11.8339C10.4615 9.06535 12.9341 7 15.9444 7C19.4222 7 22.2444 9.82223 22.2444 13.3C22.2444 13.4347 22.2399 13.5684 22.231 13.7007C22.4113 13.6341 22.6019 13.6 22.8 13.6C24.3464 13.6 25.6 14.8536 25.6 16.4C25.6 17.9464 24.3464 19.2 22.8 19.2C22.7048 19.2 22.6108 19.1946 22.5184 19.1841C21.9506 20.0141 20.9555 20.5 19.8444 20.5H8Z" 
        fill="url(#paint0_linear)" stroke="#475569" stroke-width="1.5"/>
  
  <!-- 渐变定义 -->
  <defs>
    <linearGradient id="paint0_linear" x1="3.5" y1="7" x2="25.6" y2="20.5" gradientUnits="userSpaceOnUse">
      <stop stop-color="#E2E8F0"/>
      <stop offset="1" stop-color="#94A3B8"/>
    </linearGradient>
  </defs>
</svg> 